<?xml version="1.0" standalone="no"?>
<!DOCTYPE svg PUBLIC "-//W3C//DTD SVG 20010904//EN"
 "http://www.w3.org/TR/2001/REC-SVG-20010904/DTD/svg10.dtd">
<svg version="1.0" xmlns="http://www.w3.org/2000/svg"
 width="512.000000pt" height="512.000000pt" viewBox="0 0 512.000000 512.000000"
 preserveAspectRatio="xMidYMid meet">
<metadata>
Created by potrace 1.11, written by Peter Selinger 2001-2013
</metadata>
<g transform="translate(0.000000,512.000000) scale(0.100000,-0.100000)"
fill="#000000" stroke="none">
<path d="M1180 4793 c-145 -22 -287 -63 -405 -118 -151 -71 -357 -236 -467
-375 -138 -176 -235 -390 -284 -630 -19 -89 -25 -369 -11 -460 19 -122 39
-200 83 -318 80 -212 169 -340 407 -586 43 -45 181 -186 305 -315 125 -129
252 -259 282 -291 30 -31 168 -172 305 -315 138 -142 284 -293 325 -335 41
-42 181 -186 310 -320 341 -352 336 -348 393 -377 93 -47 232 -37 313 22 16
13 79 74 140 136 60 61 143 147 184 189 93 96 293 302 605 624 132 137 269
279 305 316 36 36 172 176 302 311 469 484 507 524 544 574 16 22 32 42 35 45
34 27 145 243 186 360 63 178 82 305 78 515 -6 378 -152 718 -420 980 -77 75
-91 87 -145 125 -19 13 -37 27 -40 30 -11 14 -132 80 -197 108 -193 83 -307
106 -533 106 -141 0 -194 -4 -272 -22 -237 -52 -450 -155 -633 -306 -27 -22
-110 -102 -182 -176 l-133 -135 -138 140 c-76 77 -151 151 -168 165 -67 56
-113 90 -122 90 -4 0 -17 8 -28 18 -80 70 -332 173 -509 208 -83 16 -348 27
-415 17z"/>
</g>
</svg>
